<svg width="871" height="887" viewBox="0 0 871 887" fill="none" xmlns="http://www.w3.org/2000/svg">
<path fill-rule="evenodd" clip-rule="evenodd" d="M126.097 0.100883C130.694 -0.292916 139.349 0.531939 143.993 1.43741C201.046 12.5584 255.722 54.2387 295.892 94.2765C313.163 111.491 334.22 137.95 348.252 157.84C357.142 156.119 370.841 154.847 379.94 154.018C417.797 150.483 455.898 150.563 493.743 154.255C501.185 154.957 515.255 156.292 522.223 157.979C529.895 146.54 538.179 135.519 547.029 124.964C586.89 77.0511 637.888 33.0233 696.504 9.98769C724.419 -0.982616 755.746 -6.57477 780.523 14.8358C795.303 27.6038 806.325 47.3677 813.451 65.5869C839.703 132.721 842.52 207.144 837.768 278.315C836.979 289.923 835.964 301.049 834.75 312.615C833.5 324.484 830.236 339.331 831.42 351.009C832.051 357.293 837.344 368.887 839.875 375.086C843.432 383.559 846.696 392.151 849.67 400.843C861.943 437.705 867.171 470.387 870.224 508.968C816.737 505.98 753.367 516.025 701.131 527.975C691.231 530.239 671.237 533.432 664.002 539.488C660.323 542.541 658.071 546.984 657.786 551.754C657.507 556.579 659.164 561.307 662.387 564.906C671.2 574.725 687.291 568.505 698.605 565.907C710.551 563.098 722.521 560.396 734.515 557.799C777.41 548.786 827.334 543.141 871 544.731C869.173 578.517 866.934 598.832 858.127 631.975C851.159 628.91 842.374 626.173 835.108 623.861C785.943 608.209 734.204 603.007 682.841 601.49C676.887 601.314 669.865 600.519 664.196 602.521C659.158 604.305 655.114 608.147 653.062 613.087C651.229 617.396 651.304 622.287 653.27 626.542C658.982 639.141 673.949 637.164 685.579 637.51C694.944 637.771 704.304 638.195 713.657 638.796C756.461 641.855 804.942 649.987 845.069 665.353C831.224 697.398 811.929 726.803 788.038 752.257C677.889 867.792 501.561 902.136 348.122 879.918C213.241 860.388 77.196 790.194 23.754 657.914C33.873 654.169 43.935 649.83 54.3307 646.905C96.4228 635.058 140.73 627.604 184.525 626.827C189.688 626.736 194.082 626.185 198.989 624.68C213.408 620.243 214.25 597.873 200.551 592.307C190.127 588.253 176.732 591.099 165.84 591.512C113.212 594.516 60.6205 604.439 11.7525 624.588C3.10179 594.565 1.37239 565.718 0 534.778C46.1786 531.835 86.9107 536.545 132.207 545.776C142.494 547.888 152.744 550.176 162.953 552.634C174.07 555.243 190.049 561.3 199.341 552.562C202.801 549.272 204.759 544.708 204.755 539.932C204.834 524.686 189.116 521.203 177.235 518.46C137.586 509.302 97.8151 501.834 57.1166 499.311C38.6064 498.163 20.664 498.393 2.15556 498.754C5.01991 463.922 12.0538 429.559 23.1081 396.404C28.0247 381.687 36.847 365.036 39.6756 350.641C40.7427 345.211 37.7373 327.565 36.8353 321.261C35.8307 313.856 34.9833 306.43 34.2925 298.989C27.2893 228.266 29.0242 150.69 50.7025 82.561C56.9428 62.949 66.3025 41.2962 79.5808 25.4755C92.8525 9.66263 105.7 1.97621 126.097 0.100883ZM501.406 523.734C486.857 511.972 451.239 508.639 433.121 509.81C432.69 509.841 432.258 509.871 431.827 509.908C412.652 511.352 368.784 513.853 373.265 542.286C378.484 575.404 427.759 577.796 423.189 616.394C418.194 658.61 362.968 673.279 330.163 653.33C321.085 647.808 312.997 624.753 299.192 625.65C291.001 626.961 283.381 635.306 285.241 643.687C288.21 657.063 301.368 671.968 312.39 679.421C354.403 707.83 407.342 694.224 440.519 659.455L444.725 663.976C466.127 684.477 490.364 694.988 520.349 694.381C542.031 694.175 564.18 686.273 579.197 670.341C588.053 660.946 603.232 641.982 590.049 630.172C576.441 617.979 566.431 634.34 559.554 643.644C550.68 655.655 538.783 661.161 524.186 661.822C506.401 663.042 486.704 658.751 473.096 646.704C463.305 638.062 457.412 625.837 456.744 612.795C456.241 603.692 459.185 595.208 465.546 588.654C481.103 572.601 507.634 561.991 507.482 535.907C507.457 531.495 504.701 526.398 501.406 523.734ZM615.799 359.236C610.676 358.864 598.699 358.613 593.716 359.38C586.754 360.032 580.691 360.986 573.966 362.611C542.287 370.272 513.45 394.472 507.793 427.669C506.943 432.631 505.911 447.39 514.536 445.789C524.745 442.89 533.31 431.752 541.158 424.621C561.443 406.037 588.74 397.072 616.097 400.011C640.418 403.49 658.289 412.658 675.569 430.101C680.133 434.705 685.079 440.428 690.639 443.612C697.692 447.652 702.457 446.626 703.131 437.951C704.405 421.597 696.515 405.388 686.312 393.058C668.691 372.112 642.731 361.189 615.799 359.236ZM264.609 358.827C236.056 359.579 210.611 367.653 189.096 389.165C179.547 398.713 161.887 428.526 171.723 444.35C172.339 445.339 175.097 446.016 176.182 445.758C188.224 442.318 198.703 426.32 209.491 418.677C229.042 404.825 246.649 399.321 270.074 399.359C293.5 401.163 312.79 407.98 330.241 424.086C336.526 429.486 342.503 436.552 349.021 441.521C351.188 443.614 359.612 447.365 361.907 444.106C372.068 429.679 356.495 402.292 346.713 391.624C324.134 366.998 296.938 359.276 264.609 358.827ZM140.674 64.8632C128.689 67.7362 121.547 72.8822 114.974 83.5512C108.258 94.4536 103.614 110.003 100.378 122.447C88.313 168.833 87.4512 217.434 90.6991 265C91.5361 277.262 92.8487 289.568 93.6153 301.722C111.056 272.476 135.202 248.879 162.44 228.842C204.62 200.234 237.066 185.33 285.891 172.149C260.641 137.659 186.129 63.5368 140.674 64.8632ZM768.858 118.486C763.104 96.3988 752.189 61.605 723.466 64.906C673.731 75.6235 613.549 132.232 584.602 172.173C626.605 182.865 679.024 205.64 713.13 232.4C734.277 248.974 752.603 265.879 768.245 287.931C770.636 291.3 775.114 297.395 776.875 300.931C778.344 294.336 778.872 287.031 779.449 280.256C784.05 226.389 782.533 170.995 768.858 118.486Z" fill="white"/>
</svg>
